<?xml version="1.0" encoding="UTF-8"?>
<!-- Generator: visioncortex VTracer 0.6.4 -->
<svg version="1.1" xmlns="http://www.w3.org/2000/svg" width="161" height="164">
<path d="M0 0 C6.6 0 13.2 0 20 0 C20 6.27 20 12.54 20 19 C17.69 19 15.38 19 13 19 C13 21.31 13 23.62 13 26 C21.58 26 30.16 26 39 26 C39 29.96 39 33.92 39 38 C41.31 38 43.62 38 46 38 C46 44.6 46 51.2 46 58 C43.69 58 41.38 58 39 58 C39 61.3 39 64.6 39 68 C41.31 68 43.62 68 46 68 C46 74.6 46 81.2 46 88 C39.4 88 32.8 88 26 88 C26 81.4 26 74.8 26 68 C28.31 68 30.62 68 33 68 C33 64.7 33 61.4 33 58 C30.69 58 28.38 58 26 58 C26 51.4 26 44.8 26 38 C28.31 38 30.62 38 33 38 C33 36.02 33 34.04 33 32 C26.4 32 19.8 32 13 32 C13 33.98 13 35.96 13 38 C15.31 38 17.62 38 20 38 C20 44.6 20 51.2 20 58 C17.69 58 15.38 58 13 58 C13 61.3 13 64.6 13 68 C15.31 68 17.62 68 20 68 C20 74.6 20 81.2 20 88 C13.4 88 6.8 88 0 88 C0 81.4 0 74.8 0 68 C2.31 68 4.62 68 7 68 C7 64.7 7 61.4 7 58 C6.031 58.021 5.061 58.041 4.062 58.062 C1 58 1 58 0 57 C-0.087 55.584 -0.107 54.164 -0.098 52.746 C-0.094 51.892 -0.091 51.038 -0.088 50.158 C-0.08 49.26 -0.071 48.363 -0.062 47.438 C-0.058 46.536 -0.053 45.634 -0.049 44.705 C-0.037 42.47 -0.021 40.235 0 38 C2.31 38 4.62 38 7 38 C7 36.02 7 34.04 7 32 C0.4 32 -6.2 32 -13 32 C-13 33.98 -13 35.96 -13 38 C-10.69 38 -8.38 38 -6 38 C-6 44.6 -6 51.2 -6 58 C-8.31 58 -10.62 58 -13 58 C-13 61.3 -13 64.6 -13 68 C-10.69 68 -8.38 68 -6 68 C-6 74.6 -6 81.2 -6 88 C-12.6 88 -19.2 88 -26 88 C-26 81.4 -26 74.8 -26 68 C-23.69 68 -21.38 68 -19 68 C-19 64.7 -19 61.4 -19 58 C-21.31 58 -23.62 58 -26 58 C-26 51.4 -26 44.8 -26 38 C-23.69 38 -21.38 38 -19 38 C-19 34.04 -19 30.08 -19 26 C-10.42 26 -1.84 26 7 26 C7 23.69 7 21.38 7 19 C4.69 19 2.38 19 0 19 C0 12.73 0 6.46 0 0 Z " fill="#2A658C" transform="translate(71,38)"/>
<path d="M0 0 C6.6 0 13.2 0 20 0 C16.628 10.117 16.628 10.117 15.083 13.415 C14.74 14.156 14.396 14.896 14.043 15.659 C13.683 16.425 13.324 17.191 12.953 17.98 C12.183 19.655 11.413 21.33 10.645 23.006 C9.444 25.609 8.239 28.21 7.023 30.806 C5.84 33.337 4.676 35.877 3.516 38.418 C3.148 39.19 2.78 39.962 2.402 40.757 C-0.096 46.279 -0.312 49.394 1.802 55.204 C2.834 57.882 3.927 60.528 5.035 63.176 C5.433 64.142 5.831 65.107 6.242 66.102 C7.509 69.175 8.786 72.244 10.062 75.312 C11.341 78.4 12.619 81.488 13.894 84.576 C14.687 86.496 15.483 88.414 16.281 90.332 C16.638 91.194 16.996 92.055 17.364 92.943 C17.68 93.704 17.997 94.465 18.323 95.25 C19 97 19 97 19 98 C15.952 98.272 12.929 98.468 9.875 98.625 C8.591 98.751 8.591 98.751 7.281 98.879 C4.559 98.984 2.58 98.895 0 98 C-2.759 95.04 -4.299 91.643 -6 88 C-6.971 86.17 -7.948 84.343 -8.93 82.52 C-9.915 80.619 -10.897 78.717 -11.875 76.812 C-16.119 68.527 -16.119 68.527 -20.625 60.383 C-21.009 59.706 -21.394 59.03 -21.79 58.333 C-22.801 56.566 -23.833 54.812 -24.867 53.059 C-26 50 -26 50 -25.531 47.258 C-23.337 42.59 -21.031 38 -18.625 33.438 C-18.101 32.438 -17.578 31.439 -17.038 30.41 C-11.61 20.129 -5.848 10.047 0 0 Z " fill="#28648C" transform="translate(26,35)"/>
<path d="M0 0 C6.6 0 13.2 0 20 0 C25.438 9.419 30.71 18.903 35.812 28.508 C36.956 30.66 38.108 32.809 39.26 34.957 C39.995 36.338 40.73 37.72 41.465 39.102 C41.806 39.737 42.148 40.372 42.5 41.027 C45.864 47.393 45.864 47.393 46 50 C44.895 52.831 44.895 52.831 43.168 56.102 C42.86 56.692 42.553 57.282 42.236 57.89 C41.231 59.808 40.21 61.716 39.188 63.625 C38.496 64.936 37.805 66.248 37.115 67.56 C22.226 95.774 22.226 95.774 20 98 C18.584 98.087 17.164 98.107 15.746 98.098 C14.892 98.094 14.038 98.091 13.158 98.088 C12.26 98.08 11.363 98.071 10.438 98.062 C9.536 98.058 8.634 98.053 7.705 98.049 C5.47 98.037 3.235 98.021 1 98 C2.032 95.408 3.066 92.817 4.1 90.226 C4.998 87.976 5.894 85.726 6.788 83.475 C9.034 77.841 11.312 72.227 13.703 66.652 C14.122 65.667 14.54 64.682 14.971 63.667 C15.766 61.8 16.574 59.939 17.394 58.083 C17.753 57.237 18.111 56.391 18.48 55.52 C18.799 54.788 19.118 54.057 19.446 53.304 C20.955 47.026 17.526 41.177 15 35.586 C14.604 34.694 14.209 33.802 13.801 32.883 C12.54 30.044 11.271 27.209 10 24.375 C8.731 21.533 7.463 18.69 6.199 15.846 C5.414 14.079 4.625 12.314 3.832 10.55 C3.296 9.349 3.296 9.349 2.75 8.123 C2.435 7.421 2.121 6.72 1.797 5.997 C1 4 1 4 0 0 Z " fill="#28648C" transform="translate(114,35)"/>
<path d="M0 0 C2.97 0 5.94 0 9 0 C12.452 6.279 15.879 12.572 19.292 18.873 C20.947 21.902 22.629 24.915 24.316 27.926 C25.337 29.783 26.356 31.641 27.375 33.5 C27.869 34.365 28.363 35.229 28.872 36.12 C29.314 36.936 29.756 37.753 30.211 38.594 C30.606 39.302 31.001 40.01 31.408 40.74 C32.845 46.225 28.518 52.104 25.973 56.848 C25.388 57.949 25.388 57.949 24.792 59.073 C23.971 60.618 23.148 62.162 22.323 63.704 C21.066 66.056 19.815 68.412 18.564 70.768 C17.763 72.274 16.962 73.78 16.16 75.285 C15.788 75.984 15.416 76.683 15.033 77.404 C10.826 85.265 10.826 85.265 9 88 C6.2 88.669 3.912 88.239 1 88 C2.761 82.185 4.951 76.668 7.391 71.113 C7.701 70.403 8.011 69.693 8.331 68.962 C9.631 65.99 10.934 63.019 12.259 60.057 C13.233 57.873 14.188 55.682 15.141 53.488 C15.443 52.826 15.745 52.163 16.056 51.48 C18.247 46.37 18.2 43.229 16.285 38.077 C15.38 35.838 14.418 33.632 13.438 31.426 C13.086 30.62 12.735 29.814 12.373 28.984 C11.255 26.424 10.128 23.868 9 21.312 C7.874 18.745 6.75 16.177 5.627 13.608 C4.929 12.014 4.229 10.42 3.527 8.827 C2.243 5.907 1.009 3.028 0 0 Z " fill="#3B9DD0" transform="translate(122,40)"/>
<path d="M0 0 C2.97 0 5.94 0 9 0 C7.469 4.959 5.451 9.556 3.27 14.25 C2.542 15.843 1.814 17.437 1.088 19.031 C-0.051 21.523 -1.193 24.012 -2.349 26.496 C-3.47 28.908 -4.57 31.328 -5.668 33.75 C-6.017 34.488 -6.366 35.225 -6.725 35.985 C-9.089 41.263 -9.321 44.413 -7.277 49.965 C-6.364 52.274 -5.391 54.551 -4.402 56.828 C-3.872 58.073 -3.872 58.073 -3.33 59.344 C-2.206 61.982 -1.072 64.616 0.062 67.25 C1.2 69.899 2.335 72.548 3.466 75.199 C4.169 76.845 4.876 78.49 5.586 80.134 C8 85.776 8 85.776 8 88 C5.36 88 2.72 88 0 88 C-3.452 81.721 -6.879 75.428 -10.292 69.127 C-11.947 66.098 -13.629 63.085 -15.316 60.074 C-16.337 58.217 -17.356 56.359 -18.375 54.5 C-18.869 53.635 -19.363 52.771 -19.872 51.88 C-23.11 45.897 -23.11 45.897 -22.645 42.102 C-22.102 41.078 -21.559 40.055 -21 39 C-20.606 38.201 -20.211 37.402 -19.805 36.579 C-18.351 33.653 -16.839 30.764 -15.312 27.875 C-14.774 26.85 -14.236 25.825 -13.682 24.768 C-10.369 18.489 -6.97 12.289 -3.305 6.207 C-2.112 4.189 -1.048 2.097 0 0 Z " fill="#3B9DD0" transform="translate(29,40)"/>
<path d="M0 0 C3.3 0 6.6 0 10 0 C10 2.97 10 5.94 10 9 C6.7 9 3.4 9 0 9 C0 6.03 0 3.06 0 0 Z " fill="#EAEEF0" transform="translate(50,112)"/>
<path d="M0 0 C2.97 0 5.94 0 9 0 C9 2.97 9 5.94 9 9 C6.03 9 3.06 9 0 9 C0 6.03 0 3.06 0 0 Z " fill="#F5F7F7" transform="translate(102,112)"/>
<path d="M0 0 C2.97 0 5.94 0 9 0 C9 2.97 9 5.94 9 9 C6.03 9 3.06 9 0 9 C0 6.03 0 3.06 0 0 Z " fill="#3C9DD0" transform="translate(77,112)"/>
<path d="M0 0 C2.97 0 5.94 0 9 0 C9 2.97 9 5.94 9 9 C6.03 9 3.06 9 0 9 C0 6.03 0 3.06 0 0 Z " fill="#3A9DD0" transform="translate(102,81)"/>
<path d="M0 0 C2.97 0 5.94 0 9 0 C9 2.97 9 5.94 9 9 C6.03 9 3.06 9 0 9 C0 6.03 0 3.06 0 0 Z " fill="#F5F7F7" transform="translate(77,81)"/>
<path d="M0 0 C2.97 0 5.94 0 9 0 C9 2.97 9 5.94 9 9 C6.03 9 3.06 9 0 9 C0 6.03 0 3.06 0 0 Z " fill="#399CCF" transform="translate(50,81)"/>
<path d="M0 0 C2.97 0 5.94 0 9 0 C9 2.97 9 5.94 9 9 C6.03 9 3.06 9 0 9 C0 6.03 0 3.06 0 0 Z " fill="#3C9DD0" transform="translate(77,43)"/>
</svg>
